<mxfile host="65bd71144e">
    <diagram id="n-HU4fG1coUEZPLs6XPE" name="Page-1">
        <mxGraphModel dx="1188" dy="811" grid="1" gridSize="10" guides="1" tooltips="1" connect="1" arrows="1" fold="1" page="1" pageScale="1" pageWidth="1169" pageHeight="827" math="0" shadow="0">
            <root>
                <mxCell id="0"/>
                <mxCell id="1" parent="0"/>
                <mxCell id="7" value="&lt;span style=&quot;font-weight: 400;&quot;&gt;AlphabetSystem&lt;/span&gt;" style="swimlane;fontStyle=1;align=center;verticalAlign=middle;childLayout=stackLayout;horizontal=1;startSize=30;horizontalStack=0;resizeParent=1;resizeParentMax=0;resizeLast=0;collapsible=0;marginBottom=0;html=1;" parent="1" vertex="1">
                    <mxGeometry x="200" y="35" width="215" height="123" as="geometry"/>
                </mxCell>
                <mxCell id="71" value="- _alphabetFactory: IAlphabetFactory" style="text;html=1;strokeColor=none;fillColor=none;align=left;verticalAlign=middle;spacingLeft=4;spacingRight=4;overflow=hidden;rotatable=0;points=[[0,0.5],[1,0.5]];portConstraint=eastwest;" vertex="1" parent="7">
                    <mxGeometry y="30" width="215" height="20" as="geometry"/>
                </mxCell>
                <mxCell id="73" value="- _letters: ILetter" style="text;html=1;strokeColor=none;fillColor=none;align=left;verticalAlign=middle;spacingLeft=4;spacingRight=4;overflow=hidden;rotatable=0;points=[[0,0.5],[1,0.5]];portConstraint=eastwest;" vertex="1" parent="7">
                    <mxGeometry y="50" width="215" height="20" as="geometry"/>
                </mxCell>
                <mxCell id="74" value="- _numbers: INumber" style="text;html=1;strokeColor=none;fillColor=none;align=left;verticalAlign=middle;spacingLeft=4;spacingRight=4;overflow=hidden;rotatable=0;points=[[0,0.5],[1,0.5]];portConstraint=eastwest;" vertex="1" parent="7">
                    <mxGeometry y="70" width="215" height="20" as="geometry"/>
                </mxCell>
                <mxCell id="72" value="" style="line;strokeWidth=1;fillColor=none;align=left;verticalAlign=middle;spacingTop=-1;spacingLeft=3;spacingRight=3;rotatable=0;labelPosition=right;points=[];portConstraint=eastwest;strokeColor=default;" vertex="1" parent="7">
                    <mxGeometry y="90" width="215" height="8" as="geometry"/>
                </mxCell>
                <mxCell id="8" value="+ Display(): void" style="text;html=1;strokeColor=none;fillColor=none;align=left;verticalAlign=middle;spacingLeft=4;spacingRight=4;overflow=hidden;rotatable=0;points=[[0,0.5],[1,0.5]];portConstraint=eastwest;strokeWidth=1;" parent="7" vertex="1">
                    <mxGeometry y="98" width="215" height="25" as="geometry"/>
                </mxCell>
                <mxCell id="25" value="Program" style="swimlane;fontStyle=0;align=center;verticalAlign=top;childLayout=stackLayout;horizontal=1;startSize=30;horizontalStack=0;resizeParent=1;resizeParentMax=0;resizeLast=0;collapsible=0;marginBottom=0;html=1;" parent="1" vertex="1">
                    <mxGeometry x="30" y="77.5" width="110" height="38" as="geometry"/>
                </mxCell>
                <mxCell id="30" value="" style="line;strokeWidth=1;fillColor=none;align=left;verticalAlign=middle;spacingTop=-1;spacingLeft=3;spacingRight=3;rotatable=0;labelPosition=right;points=[];portConstraint=eastwest;" parent="25" vertex="1">
                    <mxGeometry y="30" width="110" height="8" as="geometry"/>
                </mxCell>
                <mxCell id="36" value="" style="endArrow=open;startArrow=none;endFill=0;startFill=0;endSize=8;html=1;verticalAlign=bottom;labelBackgroundColor=none;strokeWidth=2;sketch=0;" parent="1" source="25" target="7" edge="1">
                    <mxGeometry width="160" relative="1" as="geometry">
                        <mxPoint x="130" y="93.5" as="sourcePoint"/>
                        <mxPoint x="290" y="93.5" as="targetPoint"/>
                    </mxGeometry>
                </mxCell>
                <mxCell id="37" value="CyrylicaFactory" style="swimlane;fontStyle=0;align=center;verticalAlign=top;childLayout=stackLayout;horizontal=1;startSize=30;horizontalStack=0;resizeParent=1;resizeParentMax=0;resizeLast=0;collapsible=0;marginBottom=0;html=1;" parent="1" vertex="1">
                    <mxGeometry x="460" y="247.5" width="180" height="80" as="geometry"/>
                </mxCell>
                <mxCell id="89" value="+ CreateNumbers(): INumber" style="text;html=1;strokeColor=none;fillColor=none;align=left;verticalAlign=middle;spacingLeft=4;spacingRight=4;overflow=hidden;rotatable=0;points=[[0,0.5],[1,0.5]];portConstraint=eastwest;" vertex="1" parent="37">
                    <mxGeometry y="30" width="180" height="25" as="geometry"/>
                </mxCell>
                <mxCell id="88" value="+ CreateLetters(): ILetter" style="text;html=1;strokeColor=none;fillColor=none;align=left;verticalAlign=middle;spacingLeft=4;spacingRight=4;overflow=hidden;rotatable=0;points=[[0,0.5],[1,0.5]];portConstraint=eastwest;" vertex="1" parent="37">
                    <mxGeometry y="55" width="180" height="25" as="geometry"/>
                </mxCell>
                <mxCell id="62" value="" style="endArrow=block;startArrow=none;endFill=0;startFill=0;endSize=8;html=1;verticalAlign=bottom;dashed=1;labelBackgroundColor=none;sketch=0;strokeWidth=2;" parent="1" source="37" target="69" edge="1">
                    <mxGeometry width="160" relative="1" as="geometry">
                        <mxPoint x="240" y="263.5" as="sourcePoint"/>
                        <mxPoint x="288" y="98.5" as="targetPoint"/>
                    </mxGeometry>
                </mxCell>
                <mxCell id="69" value="&lt;span style=&quot;font-weight: 400;&quot;&gt;«interface»&lt;/span&gt;&lt;br style=&quot;font-weight: 400;&quot;&gt;IAlphabetFactory" style="swimlane;fontStyle=1;align=center;verticalAlign=middle;childLayout=stackLayout;horizontal=1;startSize=40;horizontalStack=0;resizeParent=1;resizeParentMax=0;resizeLast=0;collapsible=0;marginBottom=0;html=1;" vertex="1" parent="1">
                    <mxGeometry x="560" y="50" width="170" height="90" as="geometry"/>
                </mxCell>
                <mxCell id="70" value="+ CreateLetters(): ILetter" style="text;html=1;strokeColor=none;fillColor=none;align=left;verticalAlign=middle;spacingLeft=4;spacingRight=4;overflow=hidden;rotatable=0;points=[[0,0.5],[1,0.5]];portConstraint=eastwest;" vertex="1" parent="69">
                    <mxGeometry y="40" width="170" height="25" as="geometry"/>
                </mxCell>
                <mxCell id="76" value="+ CreateNumbers(): INumber" style="text;html=1;strokeColor=none;fillColor=none;align=left;verticalAlign=middle;spacingLeft=4;spacingRight=4;overflow=hidden;rotatable=0;points=[[0,0.5],[1,0.5]];portConstraint=eastwest;" vertex="1" parent="69">
                    <mxGeometry y="65" width="170" height="25" as="geometry"/>
                </mxCell>
                <mxCell id="77" value="&lt;span style=&quot;font-weight: 400;&quot;&gt;«interface»&lt;/span&gt;&lt;br style=&quot;font-weight: 400;&quot;&gt;ILetter" style="swimlane;fontStyle=1;align=center;verticalAlign=middle;childLayout=stackLayout;horizontal=1;startSize=40;horizontalStack=0;resizeParent=1;resizeParentMax=0;resizeLast=0;collapsible=0;marginBottom=0;html=1;" vertex="1" parent="1">
                    <mxGeometry x="710" y="145" width="140" height="65" as="geometry"/>
                </mxCell>
                <mxCell id="78" value="+ DisplayLetters(): string" style="text;html=1;strokeColor=none;fillColor=none;align=left;verticalAlign=middle;spacingLeft=4;spacingRight=4;overflow=hidden;rotatable=0;points=[[0,0.5],[1,0.5]];portConstraint=eastwest;" vertex="1" parent="77">
                    <mxGeometry y="40" width="140" height="25" as="geometry"/>
                </mxCell>
                <mxCell id="80" value="&lt;span style=&quot;font-weight: 400;&quot;&gt;«interface»&lt;/span&gt;&lt;br style=&quot;font-weight: 400;&quot;&gt;INumber" style="swimlane;fontStyle=1;align=center;verticalAlign=middle;childLayout=stackLayout;horizontal=1;startSize=40;horizontalStack=0;resizeParent=1;resizeParentMax=0;resizeLast=0;collapsible=0;marginBottom=0;html=1;" vertex="1" parent="1">
                    <mxGeometry x="880" y="145" width="160" height="65" as="geometry"/>
                </mxCell>
                <mxCell id="81" value="+ DisplayNumbers(): string" style="text;html=1;strokeColor=none;fillColor=none;align=left;verticalAlign=middle;spacingLeft=4;spacingRight=4;overflow=hidden;rotatable=0;points=[[0,0.5],[1,0.5]];portConstraint=eastwest;" vertex="1" parent="80">
                    <mxGeometry y="40" width="160" height="25" as="geometry"/>
                </mxCell>
                <mxCell id="82" value="" style="endArrow=open;startArrow=none;endFill=0;startFill=0;endSize=8;html=1;verticalAlign=bottom;labelBackgroundColor=none;strokeWidth=1;sketch=0;" edge="1" parent="1" source="69" target="80">
                    <mxGeometry width="160" relative="1" as="geometry">
                        <mxPoint x="830" y="55" as="sourcePoint"/>
                        <mxPoint x="830" y="105" as="targetPoint"/>
                        <Array as="points">
                            <mxPoint x="750" y="70"/>
                            <mxPoint x="960" y="70"/>
                        </Array>
                    </mxGeometry>
                </mxCell>
                <mxCell id="83" value="" style="endArrow=open;startArrow=none;endFill=0;startFill=0;endSize=8;html=1;verticalAlign=bottom;labelBackgroundColor=none;strokeWidth=1;sketch=0;" edge="1" parent="1" source="69" target="77">
                    <mxGeometry width="160" relative="1" as="geometry">
                        <mxPoint x="730" y="43.5" as="sourcePoint"/>
                        <mxPoint x="990" y="160" as="targetPoint"/>
                        <Array as="points">
                            <mxPoint x="780" y="100"/>
                        </Array>
                    </mxGeometry>
                </mxCell>
                <mxCell id="86" value="" style="endArrow=none;startArrow=diamondThin;endFill=0;startFill=0;html=1;verticalAlign=bottom;labelBackgroundColor=none;strokeWidth=2;startSize=8;endSize=8;fontSize=11;" edge="1" parent="1" source="7" target="69">
                    <mxGeometry width="160" relative="1" as="geometry">
                        <mxPoint x="360" y="230" as="sourcePoint"/>
                        <mxPoint x="520" y="230" as="targetPoint"/>
                    </mxGeometry>
                </mxCell>
                <mxCell id="90" value="CyrylicaNumbers" style="swimlane;fontStyle=0;align=center;verticalAlign=top;childLayout=stackLayout;horizontal=1;startSize=30;horizontalStack=0;resizeParent=1;resizeParentMax=0;resizeLast=0;collapsible=0;marginBottom=0;html=1;" vertex="1" parent="1">
                    <mxGeometry x="890" y="260" width="180" height="55" as="geometry"/>
                </mxCell>
                <mxCell id="92" value="+ DisplayNumbers(): string" style="text;html=1;strokeColor=none;fillColor=none;align=left;verticalAlign=middle;spacingLeft=4;spacingRight=4;overflow=hidden;rotatable=0;points=[[0,0.5],[1,0.5]];portConstraint=eastwest;" vertex="1" parent="90">
                    <mxGeometry y="30" width="180" height="25" as="geometry"/>
                </mxCell>
                <mxCell id="94" value="" style="endArrow=block;startArrow=none;endFill=0;startFill=0;endSize=8;html=1;verticalAlign=bottom;dashed=1;labelBackgroundColor=none;sketch=0;strokeWidth=2;" edge="1" parent="1" source="90" target="80">
                    <mxGeometry width="160" relative="1" as="geometry">
                        <mxPoint x="730" y="310" as="sourcePoint"/>
                        <mxPoint x="940" y="250" as="targetPoint"/>
                    </mxGeometry>
                </mxCell>
                <mxCell id="96" value="CyrylicaLetters" style="swimlane;fontStyle=0;align=center;verticalAlign=top;childLayout=stackLayout;horizontal=1;startSize=30;horizontalStack=0;resizeParent=1;resizeParentMax=0;resizeLast=0;collapsible=0;marginBottom=0;html=1;" vertex="1" parent="1">
                    <mxGeometry x="690" y="260" width="180" height="55" as="geometry"/>
                </mxCell>
                <mxCell id="97" value="+ DisplayLetters(): string" style="text;html=1;strokeColor=none;fillColor=none;align=left;verticalAlign=middle;spacingLeft=4;spacingRight=4;overflow=hidden;rotatable=0;points=[[0,0.5],[1,0.5]];portConstraint=eastwest;" vertex="1" parent="96">
                    <mxGeometry y="30" width="180" height="25" as="geometry"/>
                </mxCell>
                <mxCell id="99" value="" style="endArrow=block;startArrow=none;endFill=0;startFill=0;endSize=8;html=1;verticalAlign=bottom;dashed=1;labelBackgroundColor=none;sketch=0;strokeWidth=2;" edge="1" parent="1" source="96" target="77">
                    <mxGeometry width="160" relative="1" as="geometry">
                        <mxPoint x="955" y="270" as="sourcePoint"/>
                        <mxPoint x="927.7272727272725" y="220" as="targetPoint"/>
                    </mxGeometry>
                </mxCell>
                <mxCell id="101" value="" style="endArrow=none;startArrow=diamondThin;endFill=0;startFill=1;html=1;verticalAlign=bottom;labelBackgroundColor=none;strokeWidth=2;startSize=8;endSize=8;fontSize=11;" edge="1" parent="1" source="37" target="96">
                    <mxGeometry width="160" relative="1" as="geometry">
                        <mxPoint x="400" y="250" as="sourcePoint"/>
                        <mxPoint x="560" y="250" as="targetPoint"/>
                    </mxGeometry>
                </mxCell>
                <mxCell id="102" value="" style="endArrow=none;startArrow=diamondThin;endFill=0;startFill=1;html=1;verticalAlign=bottom;labelBackgroundColor=none;strokeWidth=2;startSize=8;endSize=8;fontSize=11;" edge="1" parent="1" source="37" target="90">
                    <mxGeometry width="160" relative="1" as="geometry">
                        <mxPoint x="650" y="280.7608695652174" as="sourcePoint"/>
                        <mxPoint x="700" y="286.7391304347826" as="targetPoint"/>
                        <Array as="points">
                            <mxPoint x="550" y="350"/>
                            <mxPoint x="980" y="350"/>
                        </Array>
                    </mxGeometry>
                </mxCell>
                <mxCell id="105" value="" style="shape=note2;boundedLbl=1;whiteSpace=wrap;html=1;size=25;verticalAlign=top;align=center;strokeColor=default;strokeWidth=1;fontSize=16;fillColor=none;" vertex="1" parent="1">
                    <mxGeometry x="450" y="30" width="640" height="380" as="geometry"/>
                </mxCell>
                <mxCell id="128" value="&lt;br style=&quot;padding: 0px; margin: 0px;&quot;&gt;&lt;span style=&quot;&quot;&gt;Do the same with other types of alphabets&lt;/span&gt;" style="text;html=1;align=center;verticalAlign=middle;resizable=0;points=[];autosize=1;strokeColor=none;fillColor=none;fontSize=16;" vertex="1" parent="1">
                    <mxGeometry x="450" y="360" width="320" height="50" as="geometry"/>
                </mxCell>
            </root>
        </mxGraphModel>
    </diagram>
</mxfile>